<svg xmlns="http://www.w3.org/2000/svg" xmlns:xlink="http://www.w3.org/1999/xlink" id="Camada_1" x="0px" y="0px" viewBox="0 0 450 118.7" style="enable-background:new 0 0 450 118.7;" xml:space="preserve"><style type="text/css">	.st0{fill:#FFFFFF;}</style><g>	<path class="st0" d="M67.6,3.3H117l56,56l-49.5,0L67.6,3.3z M59.3,0l59.3,59.3l-51.9,51.9L14.7,59.3H0l59.3,59.4h59.3L178,59.3  L118.7,0H59.3z"></path>	<path class="st0" d="M214.6,92.1c-1.2,0.5-3,0.8-5.4,0.8c-3,0-5.4-0.9-7.2-2.8c-1.7-1.8-2.5-4.1-2.5-6.9c0-3,0.9-5.4,2.6-7.2  c1.7-1.8,4.1-2.7,7.1-2.7c1.9,0,3.7,0.3,5.4,0.9l-0.5,1.4c-1.6-0.5-3.2-0.8-4.9-0.8c-2.3,0-4.1,0.6-5.6,1.8  c-1.6,1.4-2.4,3.5-2.4,6.3c0,2.9,0.9,5.1,2.6,6.6c1.5,1.3,3.5,2,6,2c1.6,0,3.1-0.2,4.5-0.7L214.6,92.1z"></path>	<path class="st0" d="M228.1,85.3h-9.8c0.1,2.5,0.6,4.2,1.7,5.1c0.8,0.7,2.2,1.1,4.1,1.1c0.5,0,1.2-0.1,2-0.2  c0.7-0.1,1.2-0.2,1.5-0.3l0.3,1.3c-0.2,0.1-0.6,0.2-1.3,0.4c-1,0.2-2,0.3-3.1,0.3c-2.2,0-3.8-0.5-4.9-1.6c-1.2-1.2-1.8-3.1-1.8-5.8  c0-5.3,2.1-8,6.3-8c3.3,0,5,2.4,5,7.3V85.3z M226.5,84.1c0-3.6-1.2-5.5-3.7-5.5c-1.2,0-2.3,0.5-3,1.4c-0.8,1-1.3,2.3-1.4,4.1H226.5  z"></path>	<path class="st0" d="M243.4,92.6H242v-9.2c0-1.6-0.2-2.7-0.5-3.3c-0.5-0.8-1.4-1.3-2.8-1.3c-1.2,0-2.8,0.7-5,2.1v11.7h-1.5V77.8  h1.5v1.7c1.9-1.4,3.7-2.1,5.3-2.1c1.9,0,3.2,0.6,3.8,1.9c0.4,0.8,0.7,2,0.7,3.6V92.6z"></path>	<path class="st0" d="M256.2,92.3c-0.7,0.3-1.5,0.4-2.4,0.4c-1.7,0-2.8-0.2-3.4-0.5c-0.9-0.6-1.3-1.8-1.3-3.7v-9.4H247v-1.4h2.2v-3  h1.5v3h4.6v1.4h-4.6v9.4c0,1.2,0.2,2,0.7,2.4c0.4,0.3,1.2,0.5,2.5,0.5c0.7,0,1.4-0.1,2.1-0.4L256.2,92.3z"></path>	<path class="st0" d="M267,77.7l-0.3,1.3c-0.5-0.1-1.1-0.2-1.7-0.2c-1.6,0-2.9,0.9-4,2.7v11.1h-1.5V77.8h1.5v2  c0.3-0.6,0.9-1.1,1.7-1.6c0.8-0.4,1.7-0.7,2.6-0.7C266.1,77.5,266.6,77.6,267,77.7"></path>	<path class="st0" d="M281.5,85.1c0,2.5-0.6,4.4-1.8,5.8c-1.1,1.2-2.7,1.8-4.6,1.8c-2,0-3.5-0.6-4.6-1.9c-1.2-1.3-1.7-3.1-1.7-5.5  c0-2.5,0.6-4.5,1.9-5.9c1.2-1.3,2.7-2,4.7-2C279.4,77.4,281.5,80,281.5,85.1 M279.9,85.1c0-1.7-0.3-3.2-0.9-4.3  c-0.8-1.4-2.1-2.2-3.9-2.2c-1.8,0-3.1,0.7-3.9,2.1c-0.7,1.1-1,2.6-1,4.3c0,1.8,0.4,3.3,1.1,4.3c0.8,1.3,2.1,1.9,3.9,1.9  C278.3,91.4,279.9,89.3,279.9,85.1"></path>	<path class="st0" d="M308.9,85.5c0,2.7-0.8,4.7-2.4,6c-1.3,1-2.9,1.5-4.9,1.5c-4.9,0-7.4-2.2-7.4-6.7V73.4h1.7V86  c0,3.6,1.9,5.4,5.7,5.4c3.8,0,5.8-2,5.8-6.1v-12h1.5V85.5z"></path>	<path class="st0" d="M325.8,92.6h-1.4v-9.2c0-1.6-0.2-2.7-0.5-3.3c-0.5-0.8-1.4-1.3-2.8-1.3c-1.2,0-2.8,0.7-5,2.1v11.7h-1.5V77.8  h1.5v1.7c1.9-1.4,3.7-2.1,5.3-2.1c1.9,0,3.2,0.6,3.8,1.9c0.4,0.8,0.7,2,0.7,3.6V92.6z"></path>	<path class="st0" d="M333.2,73.2l-1.5,1.5l-1.4-1.5l1.4-1.5L333.2,73.2z M332.5,92.6H331V77.8h1.5V92.6z"></path>	<polygon class="st0" points="348.1,77.8 342.9,92.6 340.5,92.6 335.8,77.8 337.5,77.8 341.8,91.7 342.9,88.4 346.6,77.8  "></polygon>	<path class="st0" d="M361.6,85.3h-9.8c0.1,2.5,0.6,4.2,1.7,5.1c0.8,0.7,2.2,1.1,4.1,1.1c0.5,0,1.2-0.1,2-0.2  c0.7-0.1,1.2-0.2,1.5-0.3l0.3,1.3c-0.2,0.1-0.6,0.2-1.3,0.4c-1,0.2-2,0.3-3.1,0.3c-2.2,0-3.8-0.5-4.9-1.6c-1.2-1.2-1.8-3.1-1.8-5.8  c0-5.3,2.1-8,6.3-8c3.3,0,5,2.4,5,7.3V85.3z M360.1,84.1c0-3.6-1.2-5.5-3.7-5.5c-1.2,0-2.3,0.5-3,1.4c-0.8,1-1.3,2.3-1.4,4.1H360.1  z"></path>	<path class="st0" d="M373.2,77.7l-0.3,1.3c-0.5-0.1-1.1-0.2-1.7-0.2c-1.6,0-2.9,0.9-4,2.7v11.1h-1.5V77.8h1.5v2  c0.3-0.6,0.9-1.1,1.7-1.6c0.8-0.4,1.7-0.7,2.6-0.7C372.3,77.5,372.8,77.6,373.2,77.7"></path>	<path class="st0" d="M384.1,88.7c0,1.5-0.6,2.6-1.7,3.3c-0.9,0.5-2.1,0.8-3.6,0.8c-1.5,0-2.9-0.2-4.1-0.6l0.3-1.3  c1.2,0.4,2.4,0.6,3.6,0.6c1.2,0,2.2-0.2,2.9-0.7c0.8-0.4,1.1-1.1,1.1-1.9c0-1.1-0.6-1.9-1.9-2.6c-1.2-0.5-2.4-1.1-3.5-1.7  c-1.3-0.8-1.9-2-1.9-3.4c0-1.2,0.4-2.2,1.2-2.8c0.8-0.6,2-1,3.4-1c1.1,0,2.1,0.2,3.2,0.5l-0.3,1.3c-1-0.3-2.1-0.5-3.2-0.5  c-1,0-1.7,0.2-2.2,0.7c-0.5,0.4-0.8,1-0.8,1.7c0,1.1,0.6,1.9,1.9,2.6c1.2,0.6,2.4,1.1,3.6,1.7C383.4,86.3,384.1,87.3,384.1,88.7"></path>	<path class="st0" d="M390.4,73.2l-1.5,1.5l-1.4-1.5l1.4-1.5L390.4,73.2z M389.7,92.6h-1.5V77.8h1.5V92.6z"></path>	<path class="st0" d="M402.7,92.3c-0.7,0.3-1.5,0.4-2.4,0.4c-1.7,0-2.8-0.2-3.4-0.5c-0.9-0.6-1.3-1.8-1.3-3.7v-9.4h-2.2v-1.4h2.2v-3  h1.5v3h4.6v1.4h-4.6v9.4c0,1.2,0.2,2,0.7,2.4c0.4,0.3,1.2,0.5,2.5,0.5c0.7,0,1.4-0.1,2.1-0.4L402.7,92.3z"></path>	<path class="st0" d="M416.7,91.5l-0.1,1.2c-0.6,0.1-1.2-0.1-1.7-0.4c-0.6-0.4-0.9-0.9-1-1.6c-0.6,0.4-1.1,0.7-1.7,1.1  c-1.1,0.6-2.3,0.9-3.7,0.9c-1.2,0-2.2-0.4-2.9-1.1c-0.7-0.7-1-1.7-1-3c0-1.6,0.6-2.8,1.9-3.5c0.9-0.6,2.1-0.9,3.6-0.9l3.8-0.1v-2.2  c0-1.2-0.3-2.1-1-2.5c-0.6-0.4-1.6-0.6-3.1-0.6c-0.9,0-2,0.2-3.5,0.7l-0.3-1.2c0.3-0.1,0.8-0.3,1.5-0.5c1-0.2,1.9-0.3,2.8-0.3  c3.3,0,5,1.3,5,3.8v8.7C415.3,90.9,415.8,91.4,416.7,91.5 M413.8,89.5v-4.2l-3.9,0.2c-1.2,0.1-2.2,0.4-2.9,0.9  c-0.7,0.5-1,1.2-1,2.1c0,2,1,3,3,3c0.9,0,1.9-0.3,3.1-0.9C412.9,90.2,413.5,89.8,413.8,89.5 M414,72.3l-4.9,3.4l-0.7-1.1l4.7-3.5  L414,72.3z"></path>	<path class="st0" d="M428.6,77.7l-0.3,1.3c-0.5-0.1-1.1-0.2-1.7-0.2c-1.6,0-2.9,0.9-4,2.7v11.1h-1.5V77.8h1.5v2  c0.3-0.6,0.9-1.1,1.7-1.6c0.8-0.4,1.7-0.7,2.6-0.7C427.6,77.5,428.2,77.6,428.6,77.7"></path>	<path class="st0" d="M433.5,73.2l-1.5,1.5l-1.4-1.5l1.4-1.5L433.5,73.2z M432.8,92.6h-1.5V77.8h1.5V92.6z"></path>	<path class="st0" d="M450,85.1c0,2.5-0.6,4.4-1.8,5.8c-1.1,1.2-2.7,1.8-4.6,1.8c-2,0-3.5-0.6-4.6-1.9c-1.2-1.3-1.7-3.1-1.7-5.5  c0-2.5,0.6-4.5,1.9-5.9c1.2-1.3,2.7-2,4.7-2C447.9,77.4,450,80,450,85.1 M448.5,85.1c0-1.7-0.3-3.2-0.9-4.3  c-0.8-1.4-2.1-2.2-3.9-2.2c-1.8,0-3.1,0.7-3.9,2.1c-0.7,1.1-1,2.6-1,4.3c0,1.8,0.4,3.3,1.1,4.3c0.8,1.3,2.2,1.9,3.9,1.9  C446.9,91.4,448.5,89.3,448.5,85.1"></path>	<path class="st0" d="M216.3,65.8c-9,0-18.1-2.9-18.1-15.5V26.2h9.5V50c0,5.9,2.7,8,8.6,8c5.9,0,8.6-2.2,8.6-9.1V26.2h9.2v22.8  C234.2,62.6,225,65.8,216.3,65.8"></path>	<polygon class="st0" points="266.5,65.1 251.6,39.1 251.8,44.3 251.8,65.1 242.5,65.1 242.5,26.2 253.3,26.2 268.6,52.9   268.3,48.6 268.3,26.2 277.7,26.2 277.7,65.1  "></polygon>	<rect x="286.3" y="26.3" class="st0" width="9.4" height="38.9"></rect>	<path class="st0" d="M318.5,65.1h-14.2V26.2h13.9c13.5,0,22.7,5.8,22.7,19.3C340.9,59,332.5,65.1,318.5,65.1 M318,33.5h-4.5v24.3  h5.6c9,0,12.4-4.1,12.4-11.7C331.5,37.7,327.3,33.5,318,33.5"></path>	<polygon class="st0" points="347.5,65.1 347.5,26.2 373.1,26.2 373.1,33.5 356.9,33.5 356.9,42.2 371.9,42.2 371.9,49 356.9,49   356.9,57.8 374.3,57.8 374.3,65.1  "></polygon>	<path class="st0" d="M391.6,65.7c-6.4,0-10.1-1.2-13-2.7l2.6-6.7c3.5,1.2,6,1.8,10.3,1.8c4.7,0,6.8-1.4,6.8-3.8  c0-6.3-18.5-4.6-18.5-17.8c0-7.5,7.1-10.5,14-10.5c6.2,0,9.1,1.3,12.2,2.6l-2.7,6.5c-2.9-0.8-5.2-1.6-9.2-1.6  c-3.9,0-5.1,1.3-5.1,2.9c0,5.2,18.8,5.2,18.8,17.6C407.7,62.4,399.6,65.7,391.6,65.7"></path>	<path class="st0" d="M433.8,65.7c-14.3,0-21.6-7-21.6-19.8c0-13.5,7.2-20.1,21.4-20.1c5.8,0,9.2,0.9,12.1,2.3l-2.5,6.8  c-3.7-1-5.2-1.3-9.5-1.3c-7-0.1-11.9,3.7-11.9,11.9c0,8.1,5.2,12.5,13,12.5c3.8,0,6.1-0.3,9-1.1l2,7  C442,65.2,438.8,65.7,433.8,65.7"></path></g></svg>