<svg version="1.1" xmlns="http://www.w3.org/2000/svg" xmlns:xlink="http://www.w3.org/1999/xlink" width="450px" height="118.7px" viewBox="0,0,256,67.52273"><g fill="#005aa8" fill-rule="nonzero" stroke="none" stroke-width="1" stroke-linecap="butt" stroke-linejoin="miter" stroke-miterlimit="10" stroke-dasharray="" stroke-dashoffset="0" font-family="none" font-weight="none" font-size="none" text-anchor="none" style="mix-blend-mode: normal"><g transform="translate(0,-0.00219) scale(0.56889,0.56889)"><g><path d="M67.6,3.3h49.4l56,56h-49.5zM59.3,0l59.3,59.3l-51.9,51.9l-52,-51.9h-14.7l59.3,59.4h59.3l59.4,-59.4l-59.3,-59.3z"></path><path d="M214.6,92.1c-1.2,0.5 -3,0.8 -5.4,0.8c-3,0 -5.4,-0.9 -7.2,-2.8c-1.7,-1.8 -2.5,-4.1 -2.5,-6.9c0,-3 0.9,-5.4 2.6,-7.2c1.7,-1.8 4.1,-2.7 7.1,-2.7c1.9,0 3.7,0.3 5.4,0.9l-0.5,1.4c-1.6,-0.5 -3.2,-0.8 -4.9,-0.8c-2.3,0 -4.1,0.6 -5.6,1.8c-1.6,1.4 -2.4,3.5 -2.4,6.3c0,2.9 0.9,5.1 2.6,6.6c1.5,1.3 3.5,2 6,2c1.6,0 3.1,-0.2 4.5,-0.7z"></path><path d="M228.1,85.3h-9.8c0.1,2.5 0.6,4.2 1.7,5.1c0.8,0.7 2.2,1.1 4.1,1.1c0.5,0 1.2,-0.1 2,-0.2c0.7,-0.1 1.2,-0.2 1.5,-0.3l0.3,1.3c-0.2,0.1 -0.6,0.2 -1.3,0.4c-1,0.2 -2,0.3 -3.1,0.3c-2.2,0 -3.8,-0.5 -4.9,-1.6c-1.2,-1.2 -1.8,-3.1 -1.8,-5.8c0,-5.3 2.1,-8 6.3,-8c3.3,0 5,2.4 5,7.3zM226.5,84.1c0,-3.6 -1.2,-5.5 -3.7,-5.5c-1.2,0 -2.3,0.5 -3,1.4c-0.8,1 -1.3,2.3 -1.4,4.1z"></path><path d="M243.4,92.6h-1.4v-9.2c0,-1.6 -0.2,-2.7 -0.5,-3.3c-0.5,-0.8 -1.4,-1.3 -2.8,-1.3c-1.2,0 -2.8,0.7 -5,2.1v11.7h-1.5v-14.8h1.5v1.7c1.9,-1.4 3.7,-2.1 5.3,-2.1c1.9,0 3.2,0.6 3.8,1.9c0.4,0.8 0.7,2 0.7,3.6v9.7z"></path><path d="M256.2,92.3c-0.7,0.3 -1.5,0.4 -2.4,0.4c-1.7,0 -2.8,-0.2 -3.4,-0.5c-0.9,-0.6 -1.3,-1.8 -1.3,-3.7v-9.4h-2.1v-1.4h2.2v-3h1.5v3h4.6v1.4h-4.6v9.4c0,1.2 0.2,2 0.7,2.4c0.4,0.3 1.2,0.5 2.5,0.5c0.7,0 1.4,-0.1 2.1,-0.4z"></path><path d="M267,77.7l-0.3,1.3c-0.5,-0.1 -1.1,-0.2 -1.7,-0.2c-1.6,0 -2.9,0.9 -4,2.7v11.1h-1.5v-14.8h1.5v2c0.3,-0.6 0.9,-1.1 1.7,-1.6c0.8,-0.4 1.7,-0.7 2.6,-0.7c0.8,0 1.3,0.1 1.7,0.2"></path><path d="M281.5,85.1c0,2.5 -0.6,4.4 -1.8,5.8c-1.1,1.2 -2.7,1.8 -4.6,1.8c-2,0 -3.5,-0.6 -4.6,-1.9c-1.2,-1.3 -1.7,-3.1 -1.7,-5.5c0,-2.5 0.6,-4.5 1.9,-5.9c1.2,-1.3 2.7,-2 4.7,-2c4,0 6.1,2.6 6.1,7.7M279.9,85.1c0,-1.7 -0.3,-3.2 -0.9,-4.3c-0.8,-1.4 -2.1,-2.2 -3.9,-2.2c-1.8,0 -3.1,0.7 -3.9,2.1c-0.7,1.1 -1,2.6 -1,4.3c0,1.8 0.4,3.3 1.1,4.3c0.8,1.3 2.1,1.9 3.9,1.9c3.1,0.2 4.7,-1.9 4.7,-6.1"></path><path d="M308.9,85.5c0,2.7 -0.8,4.7 -2.4,6c-1.3,1 -2.9,1.5 -4.9,1.5c-4.9,0 -7.4,-2.2 -7.4,-6.7v-12.9h1.7v12.6c0,3.6 1.9,5.4 5.7,5.4c3.8,0 5.8,-2 5.8,-6.1v-12h1.5z"></path><path d="M325.8,92.6h-1.4v-9.2c0,-1.6 -0.2,-2.7 -0.5,-3.3c-0.5,-0.8 -1.4,-1.3 -2.8,-1.3c-1.2,0 -2.8,0.7 -5,2.1v11.7h-1.5v-14.8h1.5v1.7c1.9,-1.4 3.7,-2.1 5.3,-2.1c1.9,0 3.2,0.6 3.8,1.9c0.4,0.8 0.7,2 0.7,3.6v9.7z"></path><path d="M333.2,73.2l-1.5,1.5l-1.4,-1.5l1.4,-1.5zM332.5,92.6h-1.5v-14.8h1.5z"></path><path d="M348.1,77.8l-5.2,14.8h-2.4l-4.7,-14.8h1.7l4.3,13.9l1.1,-3.3l3.7,-10.6z"></path><path d="M361.6,85.3h-9.8c0.1,2.5 0.6,4.2 1.7,5.1c0.8,0.7 2.2,1.1 4.1,1.1c0.5,0 1.2,-0.1 2,-0.2c0.7,-0.1 1.2,-0.2 1.5,-0.3l0.3,1.3c-0.2,0.1 -0.6,0.2 -1.3,0.4c-1,0.2 -2,0.3 -3.1,0.3c-2.2,0 -3.8,-0.5 -4.9,-1.6c-1.2,-1.2 -1.8,-3.1 -1.8,-5.8c0,-5.3 2.1,-8 6.3,-8c3.3,0 5,2.4 5,7.3zM360.1,84.1c0,-3.6 -1.2,-5.5 -3.7,-5.5c-1.2,0 -2.3,0.5 -3,1.4c-0.8,1 -1.3,2.3 -1.4,4.1z"></path><path d="M373.2,77.7l-0.3,1.3c-0.5,-0.1 -1.1,-0.2 -1.7,-0.2c-1.6,0 -2.9,0.9 -4,2.7v11.1h-1.5v-14.8h1.5v2c0.3,-0.6 0.9,-1.1 1.7,-1.6c0.8,-0.4 1.7,-0.7 2.6,-0.7c0.8,0 1.3,0.1 1.7,0.2"></path><path d="M384.1,88.7c0,1.5 -0.6,2.6 -1.7,3.3c-0.9,0.5 -2.1,0.8 -3.6,0.8c-1.5,0 -2.9,-0.2 -4.1,-0.6l0.3,-1.3c1.2,0.4 2.4,0.6 3.6,0.6c1.2,0 2.2,-0.2 2.9,-0.7c0.8,-0.4 1.1,-1.1 1.1,-1.9c0,-1.1 -0.6,-1.9 -1.9,-2.6c-1.2,-0.5 -2.4,-1.1 -3.5,-1.7c-1.3,-0.8 -1.9,-2 -1.9,-3.4c0,-1.2 0.4,-2.2 1.2,-2.8c0.8,-0.6 2,-1 3.4,-1c1.1,0 2.1,0.2 3.2,0.5l-0.3,1.3c-1,-0.3 -2.1,-0.5 -3.2,-0.5c-1,0 -1.7,0.2 -2.2,0.7c-0.5,0.4 -0.8,1 -0.8,1.7c0,1.1 0.6,1.9 1.9,2.6c1.2,0.6 2.4,1.1 3.6,1.7c1.3,0.9 2,1.9 2,3.3"></path><path d="M390.4,73.2l-1.5,1.5l-1.4,-1.5l1.4,-1.5zM389.7,92.6h-1.5v-14.8h1.5z"></path><path d="M402.7,92.3c-0.7,0.3 -1.5,0.4 -2.4,0.4c-1.7,0 -2.8,-0.2 -3.4,-0.5c-0.9,-0.6 -1.3,-1.8 -1.3,-3.7v-9.4h-2.2v-1.4h2.2v-3h1.5v3h4.6v1.4h-4.6v9.4c0,1.2 0.2,2 0.7,2.4c0.4,0.3 1.2,0.5 2.5,0.5c0.7,0 1.4,-0.1 2.1,-0.4z"></path><path d="M416.7,91.5l-0.1,1.2c-0.6,0.1 -1.2,-0.1 -1.7,-0.4c-0.6,-0.4 -0.9,-0.9 -1,-1.6c-0.6,0.4 -1.1,0.7 -1.7,1.1c-1.1,0.6 -2.3,0.9 -3.7,0.9c-1.2,0 -2.2,-0.4 -2.9,-1.1c-0.7,-0.7 -1,-1.7 -1,-3c0,-1.6 0.6,-2.8 1.9,-3.5c0.9,-0.6 2.1,-0.9 3.6,-0.9l3.8,-0.1v-2.2c0,-1.2 -0.3,-2.1 -1,-2.5c-0.6,-0.4 -1.6,-0.6 -3.1,-0.6c-0.9,0 -2,0.2 -3.5,0.7l-0.3,-1.2c0.3,-0.1 0.8,-0.3 1.5,-0.5c1,-0.2 1.9,-0.3 2.8,-0.3c3.3,0 5,1.3 5,3.8v8.7c0,0.9 0.5,1.4 1.4,1.5M413.8,89.5v-4.2l-3.9,0.2c-1.2,0.1 -2.2,0.4 -2.9,0.9c-0.7,0.5 -1,1.2 -1,2.1c0,2 1,3 3,3c0.9,0 1.9,-0.3 3.1,-0.9c0.8,-0.4 1.4,-0.8 1.7,-1.1M414,72.3l-4.9,3.4l-0.7,-1.1l4.7,-3.5z"></path><path d="M428.6,77.7l-0.3,1.3c-0.5,-0.1 -1.1,-0.2 -1.7,-0.2c-1.6,0 -2.9,0.9 -4,2.7v11.1h-1.5v-14.8h1.5v2c0.3,-0.6 0.9,-1.1 1.7,-1.6c0.8,-0.4 1.7,-0.7 2.6,-0.7c0.7,0 1.3,0.1 1.7,0.2"></path><path d="M433.5,73.2l-1.5,1.5l-1.4,-1.5l1.4,-1.5zM432.8,92.6h-1.5v-14.8h1.5z"></path><path d="M450,85.1c0,2.5 -0.6,4.4 -1.8,5.8c-1.1,1.2 -2.7,1.8 -4.6,1.8c-2,0 -3.5,-0.6 -4.6,-1.9c-1.2,-1.3 -1.7,-3.1 -1.7,-5.5c0,-2.5 0.6,-4.5 1.9,-5.9c1.2,-1.3 2.7,-2 4.7,-2c4,0 6.1,2.6 6.1,7.7M448.5,85.1c0,-1.7 -0.3,-3.2 -0.9,-4.3c-0.8,-1.4 -2.1,-2.2 -3.9,-2.2c-1.8,0 -3.1,0.7 -3.9,2.1c-0.7,1.1 -1,2.6 -1,4.3c0,1.8 0.4,3.3 1.1,4.3c0.8,1.3 2.2,1.9 3.9,1.9c3.1,0.2 4.7,-1.9 4.7,-6.1"></path><path d="M216.3,65.8c-9,0 -18.1,-2.9 -18.1,-15.5v-24.1h9.5v23.8c0,5.9 2.7,8 8.6,8c5.9,0 8.6,-2.2 8.6,-9.1v-22.7h9.2v22.8c0.1,13.6 -9.1,16.8 -17.8,16.8"></path><path d="M266.5,65.1l-14.9,-26l0.2,5.2v20.8h-9.3v-38.9h10.8l15.3,26.7l-0.3,-4.3v-22.4h9.4v38.9z"></path><rect x="286.3" y="26.3" width="9.4" height="38.9"></rect><path d="M318.5,65.1h-14.2v-38.9h13.9c13.5,0 22.7,5.8 22.7,19.3c0,13.5 -8.4,19.6 -22.4,19.6M318,33.5h-4.5v24.3h5.6c9,0 12.4,-4.1 12.4,-11.7c0,-8.4 -4.2,-12.6 -13.5,-12.6"></path><path d="M347.5,65.1v-38.9h25.6v7.3h-16.2v8.7h15v6.8h-15v8.8h17.4v7.3z"></path><path d="M391.6,65.7c-6.4,0 -10.1,-1.2 -13,-2.7l2.6,-6.7c3.5,1.2 6,1.8 10.3,1.8c4.7,0 6.8,-1.4 6.8,-3.8c0,-6.3 -18.5,-4.6 -18.5,-17.8c0,-7.5 7.1,-10.5 14,-10.5c6.2,0 9.1,1.3 12.2,2.6l-2.7,6.5c-2.9,-0.8 -5.2,-1.6 -9.2,-1.6c-3.9,0 -5.1,1.3 -5.1,2.9c0,5.2 18.8,5.2 18.8,17.6c-0.1,8.4 -8.2,11.7 -16.2,11.7"></path><path d="M433.8,65.7c-14.3,0 -21.6,-7 -21.6,-19.8c0,-13.5 7.2,-20.1 21.4,-20.1c5.8,0 9.2,0.9 12.1,2.3l-2.5,6.8c-3.7,-1 -5.2,-1.3 -9.5,-1.3c-7,-0.1 -11.9,3.7 -11.9,11.9c0,8.1 5.2,12.5 13,12.5c3.8,0 6.1,-0.3 9,-1.1l2,7c-3.8,1.3 -7,1.8 -12,1.8"></path></g></g></g></svg>